# xmcd
#
# Track frame offsets:
#	150
#	13340
#	30227
#	47114
#	60222
#	73118
#	95212
#	112710
#	130390
#	144283
#	158908
#	180076
#	196859
#	211104
#	223208
#	241063
#	259183
#	271814
#	289676
#	304797
#
# Disc length: 4262 seconds
#
# Revision: 1
# Processed by: cddbd v1.5.1PL2 Copyright (c) Steve Scherf et al.
# Submitted via: audiograbber 1.83.01
#
DISCID=1510a414
DTITLE=Capital Karaoke Aussie Country - Ack028
DYEAR=1900
DGENRE=Karaoke
TTITLE0=Adam Brand - Dirt Track Cowboy
TTITLE1=Adam Brand - Good Friends
TTITLE2=Adam Brand - New England Highway
TTITLE3=Adam Harvey - Beauty Is In The Eye Of The Beerhol
TTITLE4=Adam Harvey - House That Jack Built
TTITLE5=Beccy Cole - Blackwood Hill
TTITLE6=Beccy Cole - This Heart
TTITLE7=Gina Jeffreys - Josephine
TTITLE8=John Williamson - Home Among The Gum Trees
TTITLE9=Kasey Chambers - Baracades And Brickwalls
TTITLE10=Kasey Chambers - Pony
TTITLE11=Lee Kernaghan - She's My Ute
TTITLE12=Melinda Schneider - Count To Three
TTITLE13=Melinda Schneider - I Wanna Be Married
TTITLE14=Sara Storer - Buffalo Bill
TTITLE15=Sara Storer - Mantrap
TTITLE16=Sara Storer And John Williams - Raining On The Plains
TTITLE17=Wolverines - 65 Roses
TTITLE18=Richie Hamilton - Two Decades Strong (Vocal)
TTITLE19=Richie Hamilton - Two Decades Strong
EXTD=
EXTT0=
EXTT1=
EXTT2=
EXTT3=
EXTT4=
EXTT5=
EXTT6=
EXTT7=
EXTT8=
EXTT9=
EXTT10=
EXTT11=
EXTT12=
EXTT13=
EXTT14=
EXTT15=
EXTT16=
EXTT17=
EXTT18=
EXTT19=
PLAYORDER=
